<?xml version="1.0" encoding="UTF-8" standalone="no"?>
<!DOCTYPE svg PUBLIC "-//W3C//DTD SVG 1.0//EN" "http://www.w3.org/TR/2001/REC-SVG-20010904/DTD/svg10.dtd">
<!-- Generated by Microsoft Visio 11.0, SVG Export, v1.0 ukol03-snehulak.svg Page-1 -->
<svg xmlns="http://www.w3.org/2000/svg" xmlns:xlink="http://www.w3.org/1999/xlink" xmlns:ev="http://www.w3.org/2001/xml-events"
		xmlns:v="http://schemas.microsoft.com/visio/2003/SVGExtensions/" width="3.67618in" height="6.33366in"
		viewBox="0 0 264.685 456.024" xml:space="preserve" color-interpolation-filters="sRGB" class="st2">
	<v:documentProperties v:langID="1029" v:metric="true" v:viewMarkup="false">
		<v:userDefs>
			<v:ud v:nameU="msvNoAutoConnect" v:val="VT0(1):26"/>
		</v:userDefs>
	</v:documentProperties>

	<style type="text/css">
	<![CDATA[
		.st1 {fill:none;stroke:#000000;stroke-linecap:round;stroke-linejoin:round;stroke-width:4.5}
		.st2 {fill:none;fill-rule:evenodd;font-size:12px;overflow:visible;stroke-linecap:square;stroke-miterlimit:3}
	]]>
	</style>

	<g v:mID="0" v:index="1" v:groupContext="foregroundPage">
		<title>Page-1</title>
		<v:pageProperties v:drawingScale="0.0393701" v:pageScale="0.0393701" v:drawingUnits="24" v:shadowOffsetX="8.50394"
				v:shadowOffsetY="-8.50394"/>
		<g id="shape2-1" v:mID="2" v:groupContext="shape" transform="translate(65.0197,-210.295)">
			<title>Circle</title>
			<v:userDefs>
				<v:ud v:nameU="visVersion" v:val="VT0(14):26"/>
			</v:userDefs>
			<path d="M0 388.7 A67.3228 67.3228 0 0 1 134.65 388.7 A67.3228 67.3228 0 1 1 0 388.7 Z" class="st1"/>
		</g>
		<g id="shape3-3" v:mID="3" v:groupContext="shape" transform="translate(43.7598,-22.5)">
			<title>Circle.3</title>
			<v:userDefs>
				<v:ud v:nameU="visVersion" v:val="VT0(14):26"/>
			</v:userDefs>
			<path d="M0 363.9 A92.126 92.126 0 0 1 184.25 363.9 A92.126 92.126 0 0 1 0 363.9 Z" class="st1"/>
		</g>
		<g id="shape4-5" v:mID="4" v:groupContext="shape" transform="translate(86.2795,-344.941)">
			<title>Circle.4</title>
			<v:userDefs>
				<v:ud v:nameU="visVersion" v:val="VT0(14):26"/>
			</v:userDefs>
			<path d="M0 411.73 A44.2913 44.2913 0 0 1 88.58 411.73 A44.2913 44.2913 0 1 1 0 411.73 Z" class="st1"/>
		</g>
		<g id="shape5-7" v:mID="5" v:groupContext="shape" transform="translate(199.665,-258.13)">
			<title>Circle.5</title>
			<v:userDefs>
				<v:ud v:nameU="visVersion" v:val="VT0(14):26"/>
			</v:userDefs>
			<path d="M0 434.76 A21.2598 21.2598 0 0 1 42.52 434.76 A21.2598 21.2598 0 1 1 0 434.76 Z" class="st1"/>
		</g>
		<g id="shape6-9" v:mID="6" v:groupContext="shape" transform="translate(22.5,-256.358)">
			<title>Circle.6</title>
			<v:userDefs>
				<v:ud v:nameU="visVersion" v:val="VT0(14):26"/>
			</v:userDefs>
			<path d="M0 434.76 A21.2598 21.2598 0 0 1 42.52 434.76 A21.2598 21.2598 0 1 1 0 434.76 Z" class="st1"/>
		</g>
	</g>
</svg>
