<?xml version="1.0" encoding="UTF-8" standalone="no"?>
<!DOCTYPE svg PUBLIC "-//W3C//DTD SVG 1.0//EN" "http://www.w3.org/TR/2001/REC-SVG-20010904/DTD/svg10.dtd">
<!-- Generated by Microsoft Visio 11.0, SVG Export, v1.0 ukol03-lokomotiva.svg Page-1 -->
<svg xmlns="http://www.w3.org/2000/svg" xmlns:xlink="http://www.w3.org/1999/xlink" xmlns:ev="http://www.w3.org/2001/xml-events"
		xmlns:v="http://schemas.microsoft.com/visio/2003/SVGExtensions/" width="5.83658in" height="3.67837in"
		viewBox="0 0 420.234 264.843" xml:space="preserve" color-interpolation-filters="sRGB" class="st2">
	<v:documentProperties v:langID="1029" v:metric="true" v:viewMarkup="false">
		<v:userDefs>
			<v:ud v:nameU="msvNoAutoConnect" v:val="VT0(1):26"/>
		</v:userDefs>
	</v:documentProperties>

	<style type="text/css">
	<![CDATA[
		.st1 {fill:none;stroke:#000000;stroke-linecap:round;stroke-linejoin:round;stroke-width:4.5}
		.st2 {fill:none;fill-rule:evenodd;font-size:12px;overflow:visible;stroke-linecap:square;stroke-miterlimit:3}
	]]>
	</style>

	<g v:mID="0" v:index="1" v:groupContext="foregroundPage">
		<title>Page-1</title>
		<v:pageProperties v:drawingScale="0.0393701" v:pageScale="0.0393701" v:drawingUnits="24" v:shadowOffsetX="8.50394"
				v:shadowOffsetY="-8.50394"/>
		<g id="shape8-1" v:mID="8" v:groupContext="shape" transform="translate(296.15,308.463) rotate(135)">
			<title>Triangle.8</title>
			<v:userDefs>
				<v:ud v:nameU="visVersion" v:val="VT0(14):26"/>
			</v:userDefs>
			<path d="M122.16 264.84 L56.69 200.53 L-8.77 264.84 L122.16 264.84 Z" class="st1"/>
		</g>
		<g id="shape9-3" v:mID="9" v:groupContext="shape" transform="translate(114.269,-86.4374)">
			<title>Rectangle</title>
			<v:userDefs>
				<v:ud v:nameU="visVersion" v:val="VT0(14):26"/>
			</v:userDefs>
			<rect x="0" y="179.804" width="170.079" height="85.0394" class="st1"/>
		</g>
		<g id="shape10-5" v:mID="10" v:groupContext="shape" transform="translate(284.348,-86.4374)">
			<title>Rectangle.10</title>
			<v:userDefs>
				<v:ud v:nameU="visVersion" v:val="VT0(14):26"/>
			</v:userDefs>
			<rect x="0" y="108.937" width="113.386" height="155.906" class="st1"/>
		</g>
		<g id="shape11-7" v:mID="11" v:groupContext="shape" transform="translate(284.348,-33.2878)">
			<title>Circle.11</title>
			<v:userDefs>
				<v:ud v:nameU="visVersion" v:val="VT0(14):26"/>
			</v:userDefs>
			<path d="M0 208.15 A56.6929 56.6929 0 0 1 113.39 208.15 A56.6929 56.6929 0 1 1 0 208.15 Z" class="st1"/>
		</g>
		<g id="shape12-9" v:mID="12" v:groupContext="shape" transform="translate(199.309,-29.7445)">
			<title>Circle.12</title>
			<v:userDefs>
				<v:ud v:nameU="visVersion" v:val="VT0(14):26"/>
			</v:userDefs>
			<path d="M0 236.5 A28.3465 28.3465 0 0 1 56.69 236.5 A28.3465 28.3465 0 1 1 0 236.5 Z" class="st1"/>
		</g>
		<g id="shape13-11" v:mID="13" v:groupContext="shape" transform="translate(128.442,-29.7445)">
			<title>Circle.13</title>
			<v:userDefs>
				<v:ud v:nameU="visVersion" v:val="VT0(14):26"/>
			</v:userDefs>
			<path d="M0 236.5 A28.3465 28.3465 0 0 1 56.69 236.5 A28.3465 28.3465 0 1 1 0 236.5 Z" class="st1"/>
		</g>
	</g>
</svg>
