<?xml version="1.0" encoding="UTF-8" standalone="no"?>
<!DOCTYPE svg PUBLIC "-//W3C//DTD SVG 1.0//EN" "http://www.w3.org/TR/2001/REC-SVG-20010904/DTD/svg10.dtd">
<!-- Generated by Microsoft Visio 11.0, SVG Export, v1.0 ukol02-vesnice.svg Page-1 -->
<svg xmlns="http://www.w3.org/2000/svg" xmlns:xlink="http://www.w3.org/1999/xlink" xmlns:ev="http://www.w3.org/2001/xml-events"
		xmlns:v="http://schemas.microsoft.com/visio/2003/SVGExtensions/" width="2.8187in" height="2.44658in"
		viewBox="0 0 202.946 176.154" xml:space="preserve" color-interpolation-filters="sRGB" class="st3">
	<v:documentProperties v:langID="1029" v:metric="true" v:viewMarkup="false"/>

	<style type="text/css">
	<![CDATA[
		.st1 {fill:none;stroke:#000000;stroke-linecap:round;stroke-linejoin:round;stroke-width:2.25}
		.st2 {stroke:#000000;stroke-linecap:round;stroke-linejoin:round;stroke-width:2.25}
		.st3 {fill:none;fill-rule:evenodd;font-size:12px;overflow:visible;stroke-linecap:square;stroke-miterlimit:3}
	]]>
	</style>

	<g v:mID="0" v:index="1" v:groupContext="foregroundPage">
		<title>Page-1</title>
		<v:pageProperties v:drawingScale="0.0393701" v:pageScale="0.0393701" v:drawingUnits="24" v:shadowOffsetX="8.50394"
				v:shadowOffsetY="-8.50394"/>
		<g id="shape86-1" v:mID="86" v:groupContext="shape" transform="translate(178.414,66.0295) rotate(90)">
			<title>Rectangle.86</title>
			<v:userDefs>
				<v:ud v:nameU="visVersion" v:val="VT0(14):26"/>
			</v:userDefs>
			<rect x="0" y="147.807" width="33.0709" height="28.3465" class="st1"/>
		</g>
		<g id="shape87-3" v:mID="87" v:groupContext="shape" transform="translate(4.15026,-110.124)">
			<title>Triangle.87</title>
			<v:userDefs>
				<v:ud v:nameU="visVersion" v:val="VT0(14):26"/>
			</v:userDefs>
			<path d="M26.47 176.15 L12.28 154.89 L-1.9 176.15 L26.47 176.15 Z" class="st1"/>
		</g>
		<g id="shape88-5" v:mID="88" v:groupContext="shape" transform="translate(220.934,66.0295) rotate(90)">
			<title>Rectangle.88</title>
			<v:userDefs>
				<v:ud v:nameU="visVersion" v:val="VT0(14):26"/>
			</v:userDefs>
			<rect x="0" y="147.807" width="33.0709" height="28.3465" class="st1"/>
		</g>
		<g id="shape89-7" v:mID="89" v:groupContext="shape" transform="translate(46.6699,-110.124)">
			<title>Triangle.89</title>
			<v:userDefs>
				<v:ud v:nameU="visVersion" v:val="VT0(14):26"/>
			</v:userDefs>
			<path d="M26.47 176.15 L12.28 154.89 L-1.9 176.15 L26.47 176.15 Z" class="st1"/>
		</g>
		<g id="shape90-9" v:mID="90" v:groupContext="shape" transform="translate(263.453,66.0295) rotate(90)">
			<title>Rectangle.90</title>
			<v:userDefs>
				<v:ud v:nameU="visVersion" v:val="VT0(14):26"/>
			</v:userDefs>
			<rect x="0" y="147.807" width="33.0709" height="28.3465" class="st1"/>
		</g>
		<g id="shape91-11" v:mID="91" v:groupContext="shape" transform="translate(89.1896,-110.124)">
			<title>Triangle.91</title>
			<v:userDefs>
				<v:ud v:nameU="visVersion" v:val="VT0(14):26"/>
			</v:userDefs>
			<path d="M26.47 176.15 L12.28 154.89 L-1.9 176.15 L26.47 176.15 Z" class="st1"/>
		</g>
		<g id="shape92-13" v:mID="92" v:groupContext="shape" transform="translate(305.973,66.0295) rotate(90)">
			<title>Rectangle.92</title>
			<v:userDefs>
				<v:ud v:nameU="visVersion" v:val="VT0(14):26"/>
			</v:userDefs>
			<rect x="0" y="147.807" width="33.0709" height="28.3465" class="st1"/>
		</g>
		<g id="shape93-15" v:mID="93" v:groupContext="shape" transform="translate(131.709,-110.124)">
			<title>Triangle.93</title>
			<v:userDefs>
				<v:ud v:nameU="visVersion" v:val="VT0(14):26"/>
			</v:userDefs>
			<path d="M26.47 176.15 L12.28 154.89 L-1.9 176.15 L26.47 176.15 Z" class="st1"/>
		</g>
		<g id="shape94-17" v:mID="94" v:groupContext="shape" transform="translate(348.493,66.0295) rotate(90)">
			<title>Rectangle.94</title>
			<v:userDefs>
				<v:ud v:nameU="visVersion" v:val="VT0(14):26"/>
			</v:userDefs>
			<rect x="0" y="147.807" width="33.0709" height="28.3465" class="st1"/>
		</g>
		<g id="shape95-19" v:mID="95" v:groupContext="shape" transform="translate(174.229,-110.124)">
			<title>Triangle.95</title>
			<v:userDefs>
				<v:ud v:nameU="visVersion" v:val="VT0(14):26"/>
			</v:userDefs>
			<path d="M26.47 176.15 L12.28 154.89 L-1.9 176.15 L26.47 176.15 Z" class="st1"/>
		</g>
		<g id="shape96-21" v:mID="96" v:groupContext="shape" transform="translate(178.414,136.896) rotate(90)">
			<title>Rectangle.96</title>
			<v:userDefs>
				<v:ud v:nameU="visVersion" v:val="VT0(14):26"/>
			</v:userDefs>
			<rect x="0" y="147.807" width="33.0709" height="28.3465" class="st1"/>
		</g>
		<g id="shape97-23" v:mID="97" v:groupContext="shape" transform="translate(4.15026,-39.2579)">
			<title>Triangle.97</title>
			<v:userDefs>
				<v:ud v:nameU="visVersion" v:val="VT0(14):26"/>
			</v:userDefs>
			<path d="M26.47 176.15 L12.28 154.89 L-1.9 176.15 L26.47 176.15 Z" class="st1"/>
		</g>
		<g id="shape98-25" v:mID="98" v:groupContext="shape" transform="translate(348.493,136.896) rotate(90)">
			<title>Rectangle.98</title>
			<v:userDefs>
				<v:ud v:nameU="visVersion" v:val="VT0(14):26"/>
			</v:userDefs>
			<rect x="0" y="147.807" width="33.0709" height="28.3465" class="st1"/>
		</g>
		<g id="shape99-27" v:mID="99" v:groupContext="shape" transform="translate(174.229,-39.2579)">
			<title>Triangle.99</title>
			<v:userDefs>
				<v:ud v:nameU="visVersion" v:val="VT0(14):26"/>
			</v:userDefs>
			<path d="M26.47 176.15 L12.28 154.89 L-1.9 176.15 L26.47 176.15 Z" class="st1"/>
		</g>
		<g id="shape100-29" v:mID="100" v:groupContext="shape" transform="translate(83.9928,-8.23425)">
			<title>Rectangle.100</title>
			<v:userDefs>
				<v:ud v:nameU="visVersion" v:val="VT0(14):26"/>
			</v:userDefs>
			<rect x="0" y="152.217" width="31.916" height="23.937" class="st1"/>
		</g>
		<g id="shape101-31" v:mID="101" v:groupContext="shape" transform="translate(-92.1608,166.323) rotate(-90)">
			<title>Triangle.101</title>
			<v:userDefs>
				<v:ud v:nameU="visVersion" v:val="VT0(14):26"/>
			</v:userDefs>
			<path d="M22.35 176.15 L10.37 158.2 L-1.6 176.15 L22.35 176.15 Z" class="st1"/>
		</g>
		<g id="shape102-33" v:mID="102" v:groupContext="shape" transform="translate(80.0033,-2.25)">
			<title>Sheet.102</title>
			<path d="M7.98 176.15 L3.99 170.3 L0 176.15" class="st2"/>
		</g>
		<g id="shape103-36" v:mID="103" v:groupContext="shape" transform="translate(111.919,-2.25)">
			<title>Sheet.103</title>
			<path d="M7.98 176.15 L3.99 170.17 L0 176.15" class="st2"/>
		</g>
		<g id="group118-39" transform="translate(29.206,-152.063)" v:mID="118" v:groupContext="group">
			<title>Sheet.118</title>
			<g id="shape119-40" v:mID="119" v:groupContext="shape" transform="translate(-176.154,167.221) rotate(-90)">
				<title>Sheet.119</title>
				<path d="M0 176.15 L1.81 176.15" class="st2"/>
			</g>
			<g id="shape120-43" v:mID="120" v:groupContext="shape" transform="translate(-170.151,119.821) rotate(-75)">
				<title>Sheet.120</title>
				<path d="M0 176.15 L1.81 176.15" class="st2"/>
			</g>
			<g id="shape121-46" v:mID="121" v:groupContext="shape" transform="translate(-152.086,75.5898) rotate(-60)">
				<title>Sheet.121</title>
				<path d="M0 176.15 L1.81 176.15" class="st2"/>
			</g>
			<g id="shape122-49" v:mID="122" v:groupContext="shape" transform="translate(-123.188,37.5416) rotate(-45)">
				<title>Sheet.122</title>
				<path d="M0 176.15 L1.81 176.15" class="st2"/>
			</g>
			<g id="shape123-52" v:mID="123" v:groupContext="shape" transform="translate(-98.3874,16.5261) rotate(-35)">
				<title>Sheet.123</title>
				<path d="M0 176.15 L1.81 176.15" class="st2"/>
			</g>
			<g id="shape124-55" v:mID="124" v:groupContext="shape" transform="translate(-70.3148,0.136435) rotate(-25)">
				<title>Sheet.124</title>
				<path d="M0 176.15 L1.81 176.15" class="st2"/>
			</g>
			<g id="shape125-58" v:mID="125" v:groupContext="shape" transform="translate(-39.8225,-11.1295) rotate(-15)">
				<title>Sheet.125</title>
				<path d="M0 176.15 L1.81 176.15" class="st2"/>
			</g>
			<g id="shape126-61" v:mID="126" v:groupContext="shape" transform="translate(-7.83725,-16.9294) rotate(-5)">
				<title>Sheet.126</title>
				<path d="M0 176.15 L1.81 176.15" class="st2"/>
			</g>
			<g id="shape127-64" v:mID="127" v:groupContext="shape" transform="translate(194.871,167.223) rotate(90) scale(-1,1)">
				<title>Sheet.127</title>
				<path d="M0 176.15 L1.81 176.15" class="st2"/>
			</g>
			<g id="shape128-67" v:mID="128" v:groupContext="shape" transform="translate(188.868,119.824) rotate(75) scale(-1,1)">
				<title>Sheet.128</title>
				<path d="M0 176.15 L1.81 176.15" class="st2"/>
			</g>
			<g id="shape129-70" v:mID="129" v:groupContext="shape" transform="translate(170.803,75.5926) rotate(60) scale(-1,1)">
				<title>Sheet.129</title>
				<path d="M0 176.15 L1.81 176.15" class="st2"/>
			</g>
			<g id="shape130-73" v:mID="130" v:groupContext="shape" transform="translate(141.905,37.5444) rotate(45) scale(-1,1)">
				<title>Sheet.130</title>
				<path d="M0 176.15 L1.81 176.15" class="st2"/>
			</g>
			<g id="shape131-76" v:mID="131" v:groupContext="shape" transform="translate(117.104,16.529) rotate(35) scale(-1,1)">
				<title>Sheet.131</title>
				<path d="M0 176.15 L1.81 176.15" class="st2"/>
			</g>
			<g id="shape132-79" v:mID="132" v:groupContext="shape" transform="translate(89.0317,0.139258) rotate(25) scale(-1,1)">
				<title>Sheet.132</title>
				<path d="M0 176.15 L1.81 176.15" class="st2"/>
			</g>
			<g id="shape133-82" v:mID="133" v:groupContext="shape" transform="translate(58.5395,-11.1267) rotate(15) scale(-1,1)">
				<title>Sheet.133</title>
				<path d="M0 176.15 L1.81 176.15" class="st2"/>
			</g>
			<g id="shape134-85" v:mID="134" v:groupContext="shape" transform="translate(26.5542,-16.9265) rotate(5) scale(-1,1)">
				<title>Sheet.134</title>
				<path d="M0 176.15 L1.81 176.15" class="st2"/>
			</g>
			<g id="shape135-88" v:mID="135" v:groupContext="shape" transform="translate(194.871,167.329) rotate(90)">
				<title>Sheet.135</title>
				<path d="M0 176.15 L1.81 176.15" class="st2"/>
			</g>
			<g id="shape136-91" v:mID="136" v:groupContext="shape" transform="translate(188.868,214.729) rotate(105)">
				<title>Sheet.136</title>
				<path d="M0 176.15 L1.81 176.15" class="st2"/>
			</g>
			<g id="shape137-94" v:mID="137" v:groupContext="shape" transform="translate(170.803,258.96) rotate(120)">
				<title>Sheet.137</title>
				<path d="M0 176.15 L1.81 176.15" class="st2"/>
			</g>
			<g id="shape138-97" v:mID="138" v:groupContext="shape" transform="translate(141.905,297.008) rotate(135)">
				<title>Sheet.138</title>
				<path d="M0 176.15 L1.81 176.15" class="st2"/>
			</g>
			<g id="shape139-100" v:mID="139" v:groupContext="shape" transform="translate(117.104,318.024) rotate(145)">
				<title>Sheet.139</title>
				<path d="M0 176.15 L1.81 176.15" class="st2"/>
			</g>
			<g id="shape140-103" v:mID="140" v:groupContext="shape" transform="translate(89.0317,334.413) rotate(155)">
				<title>Sheet.140</title>
				<path d="M0 176.15 L1.81 176.15" class="st2"/>
			</g>
			<g id="shape141-106" v:mID="141" v:groupContext="shape" transform="translate(58.5395,345.679) rotate(165)">
				<title>Sheet.141</title>
				<path d="M0 176.15 L1.81 176.15" class="st2"/>
			</g>
			<g id="shape142-109" v:mID="142" v:groupContext="shape" transform="translate(26.5542,351.479) rotate(175)">
				<title>Sheet.142</title>
				<path d="M0 176.15 L1.81 176.15" class="st2"/>
			</g>
			<g id="shape143-112" v:mID="143" v:groupContext="shape" transform="translate(-176.154,167.326) rotate(-90) scale(-1,1)">
				<title>Sheet.143</title>
				<path d="M0 176.15 L1.81 176.15" class="st2"/>
			</g>
			<g id="shape144-115" v:mID="144" v:groupContext="shape" transform="translate(-170.151,214.726) rotate(75) scale(1,-1)">
				<title>Sheet.144</title>
				<path d="M0 176.15 L1.81 176.15" class="st2"/>
			</g>
			<g id="shape145-118" v:mID="145" v:groupContext="shape" transform="translate(-152.086,258.957) rotate(60) scale(1,-1)">
				<title>Sheet.145</title>
				<path d="M0 176.15 L1.81 176.15" class="st2"/>
			</g>
			<g id="shape146-121" v:mID="146" v:groupContext="shape" transform="translate(-123.188,297.005) rotate(45) scale(1,-1)">
				<title>Sheet.146</title>
				<path d="M0 176.15 L1.81 176.15" class="st2"/>
			</g>
			<g id="shape147-124" v:mID="147" v:groupContext="shape" transform="translate(-98.3874,318.021) rotate(35) scale(1,-1)">
				<title>Sheet.147</title>
				<path d="M0 176.15 L1.81 176.15" class="st2"/>
			</g>
			<g id="shape148-127" v:mID="148" v:groupContext="shape" transform="translate(-70.3148,334.411) rotate(25) scale(1,-1)">
				<title>Sheet.148</title>
				<path d="M0 176.15 L1.81 176.15" class="st2"/>
			</g>
			<g id="shape149-130" v:mID="149" v:groupContext="shape" transform="translate(-39.8225,345.677) rotate(15) scale(1,-1)">
				<title>Sheet.149</title>
				<path d="M0 176.15 L1.81 176.15" class="st2"/>
			</g>
			<g id="shape150-133" v:mID="150" v:groupContext="shape" transform="translate(-7.83725,351.476) rotate(5) scale(1,-1)">
				<title>Sheet.150</title>
				<path d="M0 176.15 L1.81 176.15" class="st2"/>
			</g>
		</g>
		<g id="shape151-136" v:mID="151" v:groupContext="shape" transform="translate(29.206,191.311) rotate(180)">
			<title>Sheet.151</title>
			<path d="M0 176.15 L3.88 176.15" class="st2"/>
		</g>
		<g id="shape152-139" v:mID="152" v:groupContext="shape" transform="translate(-65.4686,158.461) rotate(-147.082)">
			<title>Sheet.152</title>
			<path d="M0 176.15 L4.26 176.15" class="st2"/>
		</g>
		<g id="shape153-142" v:mID="153" v:groupContext="shape" transform="translate(-124.763,85.4045) rotate(-116.167)">
			<title>Sheet.153</title>
			<path d="M0 176.15 L3.82 176.15" class="st2"/>
		</g>
		<g id="shape154-145" v:mID="154" v:groupContext="shape" transform="translate(-137.556,6.13041) rotate(-90)">
			<title>Sheet.154</title>
			<path d="M0 176.15 L3.88 176.15" class="st2"/>
		</g>
		<g id="shape155-148" v:mID="155" v:groupContext="shape" transform="translate(-104.706,-88.5442) rotate(-57.0821)">
			<title>Sheet.155</title>
			<path d="M0 176.15 L4.26 176.15" class="st2"/>
		</g>
		<g id="shape156-151" v:mID="156" v:groupContext="shape" transform="translate(-31.1302,-148.059) rotate(-26.1669)">
			<title>Sheet.156</title>
			<path d="M0 176.15 L3.82 176.15" class="st2"/>
		</g>
		<g id="shape157-154" v:mID="157" v:groupContext="shape" transform="translate(47.9864,-161.102)">
			<title>Sheet.157</title>
			<path d="M0 176.15 L3.88 176.15" class="st2"/>
		</g>
		<g id="shape158-157" v:mID="158" v:groupContext="shape" transform="translate(142.661,-128.251) rotate(32.9179)">
			<title>Sheet.158</title>
			<path d="M0 176.15 L4.26 176.15" class="st2"/>
		</g>
		<g id="shape159-160" v:mID="159" v:groupContext="shape" transform="translate(201.892,-54.9799) rotate(63.8331)">
			<title>Sheet.159</title>
			<path d="M0 176.15 L3.82 176.15" class="st2"/>
		</g>
		<g id="shape160-163" v:mID="160" v:groupContext="shape" transform="translate(214.092,24.0795) rotate(90)">
			<title>Sheet.160</title>
			<path d="M0 176.15 L3.88 176.15" class="st2"/>
		</g>
		<g id="shape161-166" v:mID="161" v:groupContext="shape" transform="translate(181.242,118.754) rotate(122.918)">
			<title>Sheet.161</title>
			<path d="M0 176.15 L4.26 176.15" class="st2"/>
		</g>
		<g id="shape162-169" v:mID="162" v:groupContext="shape" transform="translate(107.666,178.269) rotate(153.833)">
			<title>Sheet.162</title>
			<path d="M0 176.15 L3.82 176.15" class="st2"/>
		</g>
	</g>
</svg>
