<?xml version="1.0" encoding="UTF-8" standalone="no"?>
<!DOCTYPE svg PUBLIC "-//W3C//DTD SVG 1.0//EN" "http://www.w3.org/TR/2001/REC-SVG-20010904/DTD/svg10.dtd">
<!-- Generated by Microsoft Visio 11.0, SVG Export, v1.0 ukol02-kolecko.svg Page-1 -->
<svg xmlns="http://www.w3.org/2000/svg" xmlns:xlink="http://www.w3.org/1999/xlink" xmlns:ev="http://www.w3.org/2001/xml-events"
		xmlns:v="http://schemas.microsoft.com/visio/2003/SVGExtensions/" width="0.877737in" height="0.835935in"
		viewBox="0 0 63.197 60.1873" xml:space="preserve" color-interpolation-filters="sRGB" class="st2">
	<v:documentProperties v:langID="1029" v:metric="true" v:viewMarkup="false"/>

	<style type="text/css">
	<![CDATA[
		.st1 {stroke:#000000;stroke-linecap:round;stroke-linejoin:round;stroke-width:2.25}
		.st2 {fill:none;fill-rule:evenodd;font-size:12px;overflow:visible;stroke-linecap:square;stroke-miterlimit:3}
	]]>
	</style>

	<g v:mID="0" v:index="1" v:groupContext="foregroundPage">
		<title>Page-1</title>
		<v:pageProperties v:drawingScale="0.0393701" v:pageScale="0.0393701" v:drawingUnits="24" v:shadowOffsetX="8.50394"
				v:shadowOffsetY="-8.50394"/>
		<g id="group39-1" transform="translate(2.25,-2.25)" v:mID="39" v:groupContext="group">
			<title>Sheet.39</title>
			<g id="shape7-2" v:mID="7" v:groupContext="shape" transform="translate(-60.1873,32.1731) rotate(-90)">
				<title>Sheet.7</title>
				<path d="M0 60.19 L5.67 60.19" class="st1"/>
			</g>
			<g id="shape9-5" v:mID="9" v:groupContext="shape" transform="translate(-58.1365,10.9262) rotate(-75)">
				<title>Sheet.9</title>
				<path d="M0 60.19 L5.67 60.19" class="st1"/>
			</g>
			<g id="shape12-8" v:mID="12" v:groupContext="shape" transform="translate(-50.6564,-9.06596) rotate(-60)">
				<title>Sheet.12</title>
				<path d="M0 60.19 L5.67 60.19" class="st1"/>
			</g>
			<g id="shape14-11" v:mID="14" v:groupContext="shape" transform="translate(-38.2569,-26.4409) rotate(-45)">
				<title>Sheet.14</title>
				<path d="M0 60.19 L5.67 60.19" class="st1"/>
			</g>
			<g id="shape16-14" v:mID="16" v:groupContext="shape" transform="translate(-26.2113,-37.1934) rotate(-35)">
				<title>Sheet.16</title>
				<path d="M0 60.19 L5.67 60.19" class="st1"/>
			</g>
			<g id="shape18-17" v:mID="18" v:groupContext="shape" transform="translate(-12.4815,-45.6908) rotate(-25)">
				<title>Sheet.18</title>
				<path d="M0 60.19 L5.67 60.19" class="st1"/>
			</g>
			<g id="shape20-20" v:mID="20" v:groupContext="shape" transform="translate(2.51527,-51.675) rotate(-15)">
				<title>Sheet.20</title>
				<path d="M0 60.19 L5.67 60.19" class="st1"/>
			</g>
			<g id="shape22-23" v:mID="22" v:groupContext="shape" transform="translate(18.3233,-54.9642) rotate(-5)">
				<title>Sheet.22</title>
				<path d="M0 60.19 L5.67 60.19" class="st1"/>
			</g>
			<g id="shape24-26" v:mID="24" v:groupContext="shape" transform="translate(118.884,32.182) rotate(90) scale(-1,1)">
				<title>Sheet.24</title>
				<path d="M0 60.19 L5.67 60.19" class="st1"/>
			</g>
			<g id="shape26-29" v:mID="26" v:groupContext="shape" transform="translate(116.834,10.935) rotate(75) scale(-1,1)">
				<title>Sheet.26</title>
				<path d="M0 60.19 L5.67 60.19" class="st1"/>
			</g>
			<g id="shape27-32" v:mID="27" v:groupContext="shape" transform="translate(109.353,-9.05711) rotate(60) scale(-1,1)">
				<title>Sheet.27</title>
				<path d="M0 60.19 L5.67 60.19" class="st1"/>
			</g>
			<g id="shape28-35" v:mID="28" v:groupContext="shape" transform="translate(96.9539,-26.4321) rotate(45) scale(-1,1)">
				<title>Sheet.28</title>
				<path d="M0 60.19 L5.67 60.19" class="st1"/>
			</g>
			<g id="shape29-38" v:mID="29" v:groupContext="shape" transform="translate(84.9083,-37.1846) rotate(35) scale(-1,1)">
				<title>Sheet.29</title>
				<path d="M0 60.19 L5.67 60.19" class="st1"/>
			</g>
			<g id="shape30-41" v:mID="30" v:groupContext="shape" transform="translate(71.1785,-45.682) rotate(25) scale(-1,1)">
				<title>Sheet.30</title>
				<path d="M0 60.19 L5.67 60.19" class="st1"/>
			</g>
			<g id="shape31-44" v:mID="31" v:groupContext="shape" transform="translate(56.1818,-51.6662) rotate(15) scale(-1,1)">
				<title>Sheet.31</title>
				<path d="M0 60.19 L5.67 60.19" class="st1"/>
			</g>
			<g id="shape32-47" v:mID="32" v:groupContext="shape" transform="translate(40.3737,-54.9553) rotate(5) scale(-1,1)">
				<title>Sheet.32</title>
				<path d="M0 60.19 L5.67 60.19" class="st1"/>
			</g>
			<g id="shape8-50" v:mID="8" v:groupContext="shape" transform="translate(118.884,32.5142) rotate(90)">
				<title>Sheet.8</title>
				<path d="M0 60.19 L5.67 60.19" class="st1"/>
			</g>
			<g id="shape10-53" v:mID="10" v:groupContext="shape" transform="translate(116.834,53.7611) rotate(105)">
				<title>Sheet.10</title>
				<path d="M0 60.19 L5.67 60.19" class="st1"/>
			</g>
			<g id="shape11-56" v:mID="11" v:groupContext="shape" transform="translate(109.353,73.7533) rotate(120)">
				<title>Sheet.11</title>
				<path d="M0 60.19 L5.67 60.19" class="st1"/>
			</g>
			<g id="shape13-59" v:mID="13" v:groupContext="shape" transform="translate(96.9539,91.1282) rotate(135)">
				<title>Sheet.13</title>
				<path d="M0 60.19 L5.67 60.19" class="st1"/>
			</g>
			<g id="shape15-62" v:mID="15" v:groupContext="shape" transform="translate(84.9083,101.881) rotate(145)">
				<title>Sheet.15</title>
				<path d="M0 60.19 L5.67 60.19" class="st1"/>
			</g>
			<g id="shape17-65" v:mID="17" v:groupContext="shape" transform="translate(71.1785,110.378) rotate(155)">
				<title>Sheet.17</title>
				<path d="M0 60.19 L5.67 60.19" class="st1"/>
			</g>
			<g id="shape19-68" v:mID="19" v:groupContext="shape" transform="translate(56.1818,116.362) rotate(165)">
				<title>Sheet.19</title>
				<path d="M0 60.19 L5.67 60.19" class="st1"/>
			</g>
			<g id="shape21-71" v:mID="21" v:groupContext="shape" transform="translate(40.3737,119.651) rotate(175)">
				<title>Sheet.21</title>
				<path d="M0 60.19 L5.67 60.19" class="st1"/>
			</g>
			<g id="shape23-74" v:mID="23" v:groupContext="shape" transform="translate(-60.1873,32.5054) rotate(-90) scale(-1,1)">
				<title>Sheet.23</title>
				<path d="M0 60.19 L5.67 60.19" class="st1"/>
			</g>
			<g id="shape25-77" v:mID="25" v:groupContext="shape" transform="translate(-58.1365,53.7523) rotate(75) scale(1,-1)">
				<title>Sheet.25</title>
				<path d="M0 60.19 L5.67 60.19" class="st1"/>
			</g>
			<g id="shape33-80" v:mID="33" v:groupContext="shape" transform="translate(-50.6564,73.7444) rotate(60) scale(1,-1)">
				<title>Sheet.33</title>
				<path d="M0 60.19 L5.67 60.19" class="st1"/>
			</g>
			<g id="shape34-83" v:mID="34" v:groupContext="shape" transform="translate(-38.2569,91.1194) rotate(45) scale(1,-1)">
				<title>Sheet.34</title>
				<path d="M0 60.19 L5.67 60.19" class="st1"/>
			</g>
			<g id="shape35-86" v:mID="35" v:groupContext="shape" transform="translate(-26.2113,101.872) rotate(35) scale(1,-1)">
				<title>Sheet.35</title>
				<path d="M0 60.19 L5.67 60.19" class="st1"/>
			</g>
			<g id="shape36-89" v:mID="36" v:groupContext="shape" transform="translate(-12.4815,110.369) rotate(25) scale(1,-1)">
				<title>Sheet.36</title>
				<path d="M0 60.19 L5.67 60.19" class="st1"/>
			</g>
			<g id="shape37-92" v:mID="37" v:groupContext="shape" transform="translate(2.51527,116.353) rotate(15) scale(1,-1)">
				<title>Sheet.37</title>
				<path d="M0 60.19 L5.67 60.19" class="st1"/>
			</g>
			<g id="shape38-95" v:mID="38" v:groupContext="shape" transform="translate(18.3233,119.643) rotate(5) scale(1,-1)">
				<title>Sheet.38</title>
				<path d="M0 60.19 L5.67 60.19" class="st1"/>
			</g>
		</g>
	</g>
</svg>
