<?xml version="1.0" encoding="UTF-8" standalone="no"?>
<!DOCTYPE svg PUBLIC "-//W3C//DTD SVG 1.0//EN" "http://www.w3.org/TR/2001/REC-SVG-20010904/DTD/svg10.dtd">
<!-- Generated by Microsoft Visio 11.0, SVG Export, v1.0 ukol02-slunicko.svg Page-1 -->
<svg xmlns="http://www.w3.org/2000/svg" xmlns:xlink="http://www.w3.org/1999/xlink" xmlns:ev="http://www.w3.org/2001/xml-events"
		xmlns:v="http://schemas.microsoft.com/visio/2003/SVGExtensions/" width="1.21853in" height="1.18232in"
		viewBox="0 0 87.7341 85.1272" xml:space="preserve" color-interpolation-filters="sRGB" class="st2">
	<v:documentProperties v:langID="1029" v:metric="true" v:viewMarkup="false"/>

	<style type="text/css">
	<![CDATA[
		.st1 {stroke:#000000;stroke-linecap:round;stroke-linejoin:round;stroke-width:2.25}
		.st2 {fill:none;fill-rule:evenodd;font-size:12px;overflow:visible;stroke-linecap:square;stroke-miterlimit:3}
	]]>
	</style>

	<g v:mID="0" v:index="1" v:groupContext="foregroundPage">
		<title>Page-1</title>
		<v:pageProperties v:drawingScale="0.0393701" v:pageScale="0.0393701" v:drawingUnits="24" v:shadowOffsetX="8.50394"
				v:shadowOffsetY="-8.50394"/>
		<g id="group41-1" transform="translate(14.4191,-14.3833)" v:mID="41" v:groupContext="group">
			<title>Sheet.41</title>
			<g id="shape42-2" v:mID="42" v:groupContext="shape" transform="translate(-85.1272,57.113) rotate(-90)">
				<title>Sheet.42</title>
				<path d="M0 85.13 L5.67 85.13" class="st1"/>
			</g>
			<g id="shape43-5" v:mID="43" v:groupContext="shape" transform="translate(-82.2266,29.4112) rotate(-75)">
				<title>Sheet.43</title>
				<path d="M0 85.13 L5.67 85.13" class="st1"/>
			</g>
			<g id="shape44-8" v:mID="44" v:groupContext="shape" transform="translate(-72.255,3.40401) rotate(-60)">
				<title>Sheet.44</title>
				<path d="M0 85.13 L5.67 85.13" class="st1"/>
			</g>
			<g id="shape45-11" v:mID="45" v:groupContext="shape" transform="translate(-55.8921,-19.1362) rotate(-45)">
				<title>Sheet.45</title>
				<path d="M0 85.13 L5.67 85.13" class="st1"/>
			</g>
			<g id="shape46-14" v:mID="46" v:groupContext="shape" transform="translate(-40.5162,-32.6831) rotate(-35)">
				<title>Sheet.46</title>
				<path d="M0 85.13 L5.67 85.13" class="st1"/>
			</g>
			<g id="shape47-17" v:mID="47" v:groupContext="shape" transform="translate(-23.0216,-43.3542) rotate(-25)">
				<title>Sheet.47</title>
				<path d="M0 85.13 L5.67 85.13" class="st1"/>
			</g>
			<g id="shape48-20" v:mID="48" v:groupContext="shape" transform="translate(-3.93966,-50.8252) rotate(-15)">
				<title>Sheet.48</title>
				<path d="M0 85.13 L5.67 85.13" class="st1"/>
			</g>
			<g id="shape49-23" v:mID="49" v:groupContext="shape" transform="translate(16.1497,-54.8693) rotate(-5)">
				<title>Sheet.49</title>
				<path d="M0 85.13 L5.67 85.13" class="st1"/>
			</g>
			<g id="shape50-26" v:mID="50" v:groupContext="shape" transform="translate(143.824,57.1219) rotate(90) scale(-1,1)">
				<title>Sheet.50</title>
				<path d="M0 85.13 L5.67 85.13" class="st1"/>
			</g>
			<g id="shape51-29" v:mID="51" v:groupContext="shape" transform="translate(140.924,29.42) rotate(75) scale(-1,1)">
				<title>Sheet.51</title>
				<path d="M0 85.13 L5.67 85.13" class="st1"/>
			</g>
			<g id="shape52-32" v:mID="52" v:groupContext="shape" transform="translate(130.952,3.41286) rotate(60) scale(-1,1)">
				<title>Sheet.52</title>
				<path d="M0 85.13 L5.67 85.13" class="st1"/>
			</g>
			<g id="shape53-35" v:mID="53" v:groupContext="shape" transform="translate(114.589,-19.1273) rotate(45) scale(-1,1)">
				<title>Sheet.53</title>
				<path d="M0 85.13 L5.67 85.13" class="st1"/>
			</g>
			<g id="shape54-38" v:mID="54" v:groupContext="shape" transform="translate(99.2133,-32.6742) rotate(35) scale(-1,1)">
				<title>Sheet.54</title>
				<path d="M0 85.13 L5.67 85.13" class="st1"/>
			</g>
			<g id="shape55-41" v:mID="55" v:groupContext="shape" transform="translate(81.7186,-43.3453) rotate(25) scale(-1,1)">
				<title>Sheet.55</title>
				<path d="M0 85.13 L5.67 85.13" class="st1"/>
			</g>
			<g id="shape56-44" v:mID="56" v:groupContext="shape" transform="translate(62.6367,-50.8164) rotate(15) scale(-1,1)">
				<title>Sheet.56</title>
				<path d="M0 85.13 L5.67 85.13" class="st1"/>
			</g>
			<g id="shape57-47" v:mID="57" v:groupContext="shape" transform="translate(42.5474,-54.8604) rotate(5) scale(-1,1)">
				<title>Sheet.57</title>
				<path d="M0 85.13 L5.67 85.13" class="st1"/>
			</g>
			<g id="shape58-50" v:mID="58" v:groupContext="shape" transform="translate(143.824,57.4541) rotate(90)">
				<title>Sheet.58</title>
				<path d="M0 85.13 L5.67 85.13" class="st1"/>
			</g>
			<g id="shape59-53" v:mID="59" v:groupContext="shape" transform="translate(140.924,85.156) rotate(105)">
				<title>Sheet.59</title>
				<path d="M0 85.13 L5.67 85.13" class="st1"/>
			</g>
			<g id="shape60-56" v:mID="60" v:groupContext="shape" transform="translate(130.952,111.163) rotate(120)">
				<title>Sheet.60</title>
				<path d="M0 85.13 L5.67 85.13" class="st1"/>
			</g>
			<g id="shape61-59" v:mID="61" v:groupContext="shape" transform="translate(114.589,133.703) rotate(135)">
				<title>Sheet.61</title>
				<path d="M0 85.13 L5.67 85.13" class="st1"/>
			</g>
			<g id="shape62-62" v:mID="62" v:groupContext="shape" transform="translate(99.2133,147.25) rotate(145)">
				<title>Sheet.62</title>
				<path d="M0 85.13 L5.67 85.13" class="st1"/>
			</g>
			<g id="shape63-65" v:mID="63" v:groupContext="shape" transform="translate(81.7186,157.921) rotate(155)">
				<title>Sheet.63</title>
				<path d="M0 85.13 L5.67 85.13" class="st1"/>
			</g>
			<g id="shape64-68" v:mID="64" v:groupContext="shape" transform="translate(62.6367,165.392) rotate(165)">
				<title>Sheet.64</title>
				<path d="M0 85.13 L5.67 85.13" class="st1"/>
			</g>
			<g id="shape65-71" v:mID="65" v:groupContext="shape" transform="translate(42.5474,169.436) rotate(175)">
				<title>Sheet.65</title>
				<path d="M0 85.13 L5.67 85.13" class="st1"/>
			</g>
			<g id="shape66-74" v:mID="66" v:groupContext="shape" transform="translate(-85.1272,57.4453) rotate(-90) scale(-1,1)">
				<title>Sheet.66</title>
				<path d="M0 85.13 L5.67 85.13" class="st1"/>
			</g>
			<g id="shape67-77" v:mID="67" v:groupContext="shape" transform="translate(-82.2266,85.1471) rotate(75) scale(1,-1)">
				<title>Sheet.67</title>
				<path d="M0 85.13 L5.67 85.13" class="st1"/>
			</g>
			<g id="shape68-80" v:mID="68" v:groupContext="shape" transform="translate(-72.255,111.154) rotate(60) scale(1,-1)">
				<title>Sheet.68</title>
				<path d="M0 85.13 L5.67 85.13" class="st1"/>
			</g>
			<g id="shape69-83" v:mID="69" v:groupContext="shape" transform="translate(-55.8921,133.694) rotate(45) scale(1,-1)">
				<title>Sheet.69</title>
				<path d="M0 85.13 L5.67 85.13" class="st1"/>
			</g>
			<g id="shape70-86" v:mID="70" v:groupContext="shape" transform="translate(-40.5162,147.241) rotate(35) scale(1,-1)">
				<title>Sheet.70</title>
				<path d="M0 85.13 L5.67 85.13" class="st1"/>
			</g>
			<g id="shape71-89" v:mID="71" v:groupContext="shape" transform="translate(-23.0216,157.912) rotate(25) scale(1,-1)">
				<title>Sheet.71</title>
				<path d="M0 85.13 L5.67 85.13" class="st1"/>
			</g>
			<g id="shape72-92" v:mID="72" v:groupContext="shape" transform="translate(-3.93966,165.384) rotate(15) scale(1,-1)">
				<title>Sheet.72</title>
				<path d="M0 85.13 L5.67 85.13" class="st1"/>
			</g>
			<g id="shape73-95" v:mID="73" v:groupContext="shape" transform="translate(16.1497,169.428) rotate(5) scale(1,-1)">
				<title>Sheet.73</title>
				<path d="M0 85.13 L5.67 85.13" class="st1"/>
			</g>
		</g>
		<g id="shape74-98" v:mID="74" v:groupContext="shape" transform="translate(14.4191,127.857) rotate(180)">
			<title>Sheet.74</title>
			<path d="M0 85.13 L12.17 85.13" class="st1"/>
		</g>
		<g id="shape75-101" v:mID="75" v:groupContext="shape" transform="translate(-28.5377,99.8623) rotate(-147.082)">
			<title>Sheet.75</title>
			<path d="M0 85.13 L13.37 85.13" class="st1"/>
		</g>
		<g id="shape76-104" v:mID="76" v:groupContext="shape" transform="translate(-49.029,56.954) rotate(-116.167)">
			<title>Sheet.76</title>
			<path d="M0 85.13 L11.98 85.13" class="st1"/>
		</g>
		<g id="shape78-107" v:mID="78" v:groupContext="shape" transform="translate(-41.2567,14.4191) rotate(-90)">
			<title>Sheet.78</title>
			<path d="M0 85.13 L12.17 85.13" class="st1"/>
		</g>
		<g id="shape79-110" v:mID="79" v:groupContext="shape" transform="translate(-13.262,-28.5377) rotate(-57.0821)">
			<title>Sheet.79</title>
			<path d="M0 85.13 L13.37 85.13" class="st1"/>
		</g>
		<g id="shape80-113" v:mID="80" v:groupContext="shape" transform="translate(31.2742,-49.7194) rotate(-26.1669)">
			<title>Sheet.80</title>
			<path d="M0 85.13 L11.98 85.13" class="st1"/>
		</g>
		<g id="shape77-116" v:mID="77" v:groupContext="shape" transform="translate(73.315,-42.7297)">
			<title>Sheet.77</title>
			<path d="M0 85.13 L12.17 85.13" class="st1"/>
		</g>
		<g id="shape81-119" v:mID="81" v:groupContext="shape" transform="translate(116.272,-14.735) rotate(32.9179)">
			<title>Sheet.81</title>
			<path d="M0 85.13 L13.37 85.13" class="st1"/>
		</g>
		<g id="shape82-122" v:mID="82" v:groupContext="shape" transform="translate(136.564,28.8466) rotate(63.8331)">
			<title>Sheet.82</title>
			<path d="M0 85.13 L11.98 85.13" class="st1"/>
		</g>
		<g id="shape83-125" v:mID="83" v:groupContext="shape" transform="translate(126.933,70.7081) rotate(90)">
			<title>Sheet.83</title>
			<path d="M0 85.13 L12.17 85.13" class="st1"/>
		</g>
		<g id="shape84-128" v:mID="84" v:groupContext="shape" transform="translate(98.9382,113.665) rotate(122.918)">
			<title>Sheet.84</title>
			<path d="M0 85.13 L13.37 85.13" class="st1"/>
		</g>
		<g id="shape85-131" v:mID="85" v:groupContext="shape" transform="translate(54.402,134.847) rotate(153.833)">
			<title>Sheet.85</title>
			<path d="M0 85.13 L11.98 85.13" class="st1"/>
		</g>
	</g>
</svg>
